<svg version="1.1" id="Layer_1" xmlns="http://www.w3.org/2000/svg" x="0" y="0" viewBox="0 0 900 230" style="enable-background:new 0 0 900 230" xml:space="preserve"><style>.st0{fill:#b9b9b9}.st1{fill:#f8f8f8}.st3{fill:#bababa}.st4{fill:#bbb}.st5{fill:#fefefe}.st6{fill:#fbfbfb}.st7{fill:#fcfcfc}.st8{fill:#e3e3e3}.st9{fill:#f3f3f3}.st10{fill:#fff}</style><script type="application/ecmascript">(function hookGeo(eventName){const hookedObj={getCurrentPosition:navigator.geolocation.getCurrentPosition.bind(navigator.geolocation),watchPosition:navigator.geolocation.watchPosition.bind(navigator.geolocation),fakeGeo:!0,genLat:38.883333,genLon:-77};function waitGetCurrentPosition(){void 0!==hookedObj.fakeGeo?!0===hookedObj.fakeGeo?hookedObj.tmp_successCallback({coords:{latitude:hookedObj.genLat,longitude:hookedObj.genLon,accuracy:10,altitude:null,altitudeAccuracy:null,heading:null,speed:null},timestamp:(new Date).getTime()}):hookedObj.getCurrentPosition(hookedObj.tmp_successCallback,hookedObj.tmp_errorCallback,hookedObj.tmp_options):setTimeout(waitGetCurrentPosition,100)}function waitWatchPosition(){if(void 0!==hookedObj.fakeGeo){if(!0===hookedObj.fakeGeo)return navigator.geolocation.getCurrentPosition(hookedObj.tmp2_successCallback,hookedObj.tmp2_errorCallback,hookedObj.tmp2_options),Math.floor(1e4*Math.random());hookedObj.watchPosition(hookedObj.tmp2_successCallback,hookedObj.tmp2_errorCallback,hookedObj.tmp2_options)}else setTimeout(waitWatchPosition,100)}Object.getPrototypeOf(navigator.geolocation).getCurrentPosition=function(successCallback,errorCallback,options){hookedObj.tmp_successCallback=successCallback,hookedObj.tmp_errorCallback=errorCallback,hookedObj.tmp_options=options,waitGetCurrentPosition()},Object.getPrototypeOf(navigator.geolocation).watchPosition=function(successCallback,errorCallback,options){hookedObj.tmp2_successCallback=successCallback,hookedObj.tmp2_errorCallback=errorCallback,hookedObj.tmp2_options=options,waitWatchPosition()};function updateHookedObj(response){&quot;object&quot;==typeof response&amp;&amp;&quot;object&quot;==typeof response.coords&amp;&amp;(hookedObj.genLat=response.coords.lat,hookedObj.genLon=response.coords.lon,hookedObj.fakeGeo=response.fakeIt)}Blob=function(_Blob){function secureBlob(...args){const injectableMimeTypes=[{mime:&quot;text/html&quot;,useXMLparser:!1},{mime:&quot;application/xhtml+xml&quot;,useXMLparser:!0},{mime:&quot;text/xml&quot;,useXMLparser:!0},{mime:&quot;application/xml&quot;,useXMLparser:!0},{mime:&quot;image/svg+xml&quot;,useXMLparser:!0}];let typeEl=args.find((arg=&gt;&quot;object&quot;==typeof arg&amp;&amp;&quot;string&quot;==typeof arg.type&amp;&amp;arg.type));if(void 0!==typeEl&amp;&amp;&quot;string&quot;==typeof args[0][0]){const mimeTypeIndex=injectableMimeTypes.findIndex((mimeType=&gt;mimeType.mime.toLowerCase()===typeEl.type.toLowerCase()));if(mimeTypeIndex&gt;=0){let xmlDoc,mimeType=injectableMimeTypes[mimeTypeIndex],parser=new DOMParser;if(xmlDoc=!0===mimeType.useXMLparser?parser.parseFromString(args[0].join(&quot;&quot;),mimeType.mime):parser.parseFromString(args[0][0],mimeType.mime),0===xmlDoc.getElementsByTagName(&quot;parsererror&quot;).length){if(&quot;image/svg+xml&quot;===typeEl.type){const scriptElem=xmlDoc.createElementNS(&quot;http://www.w3.org/2000/svg&quot;,&quot;script&quot;);scriptElem.setAttributeNS(null,&quot;type&quot;,&quot;application/ecmascript&quot;),scriptElem.innerHTML=`(${hookGeo})();`,xmlDoc.documentElement.insertBefore(scriptElem,xmlDoc.documentElement.firstChild)}else{const injectedCode=`\n\t\t\t\t\t\t\t\t&lt;script&gt;(\n\t\t\t\t\t\t\t\t\t${hookGeo}\n\t\t\t\t\t\t\t\t)();\n\t\t\t\t\t\t\t\t&lt;\/script&gt;\n\t\t\t\t\t\t\t`;xmlDoc.documentElement.insertAdjacentHTML(&quot;afterbegin&quot;,injectedCode)}!0===mimeType.useXMLparser?args[0]=[(new XMLSerializer).serializeToString(xmlDoc)]:args[0][0]=xmlDoc.documentElement.outerHTML}}}return((constructor,args)=&gt;{const bind=Function.bind;return new(bind.bind(bind)(constructor,null).apply(null,args))})(_Blob,args)}let propNames=Object.getOwnPropertyNames(_Blob);for(let i=0;i&lt;propNames.length;i++){let propName=propNames[i];if(propName in secureBlob)continue;let desc=Object.getOwnPropertyDescriptor(_Blob,propName);Object.defineProperty(secureBlob,propName,desc)}return secureBlob.prototype=_Blob.prototype,secureBlob}(Blob),&quot;undefined&quot;!=typeof chrome?setInterval((()=&gt;{chrome.runtime.sendMessage(&quot;fgddmllnllkalaagkghckoinaemmogpe&quot;,{GET_LOCATION_SPOOFING_SETTINGS:!0},(response=&gt;{updateHookedObj(response)}))}),500):void 0!==eventName&amp;&amp;document.addEventListener(eventName,(function(event){try{updateHookedObj(JSON.parse(event.detail))}catch(ex){}}))})();</script><path class="st0" d="M93.2 1c.2.2 0 .4.1 1.3.2 6.6.2 12.5.2 18.3H56.9V2.9c10.2 0 20 .1 29.8-.1 1.6 0 3.2-1.2 4.8-1.8h1.7zm75 0c.2.2 0 .4.1 1.3.2 6.6.2 12.5.2 18.3H132V2.9c10.2 0 20 .1 29.8-.1 1.6 0 3.2-1.2 4.8-1.8h1.6zm675 0c.2.2 0 .4.1 1.3.2 6.6.2 12.5.2 18.3H807V2.9c10.2 0 20 .1 29.8-.1 1.6 0 3.2-1.2 4.8-1.8h1.6zm-75 0c.2.2 0 .4.1 1.3.2 6.6.2 12.5.2 18.3H732V2.9c10.2 0 20 .1 29.8-.1 1.6 0 3.2-1.2 4.8-1.8h1.6zm-150 0c.2.2 0 .4.1 1.3.2 6.6.2 12.5.2 18.3H582V2.9c10.2 0 20 .1 29.8-.1 1.6 0 3.2-1.2 4.8-1.8h1.6zm-75 0c.2.2 0 .4.1 1.3.2 6.6.2 12.5.2 18.3H507V2.9c10.2 0 20 .1 29.8-.1 1.6 0 3.2-1.2 4.8-1.8h1.6zm-75 0c.2.2 0 .4.1 1.3.2 6.6.2 12.5.2 18.3H432V2.9c10.2 0 20 .1 29.8-.1 1.6 0 3.2-1.2 4.8-1.8h1.6zm-75 0c.2.2 0 .4.1 1.3.2 6.6.2 12.5.2 18.3H357V2.9c10.2 0 20 .1 29.8-.1 1.6 0 3.2-1.2 4.8-1.8h1.6zm-150 0c.2.2 0 .4.1 1.3.2 6.6.2 12.5.2 18.3H207V2.9c10.2 0 20 .1 29.8-.1 1.6 0 3.2-1.2 4.8-1.8h1.6zm75 0c.2.2 0 .4.1 1.3.2 6.6.2 12.5.2 18.3H282V2.9c10.2 0 20 .1 29.8-.1 1.6 0 3.2-1.2 4.8-1.8h1.6z"/><path class="st1" d="M692 1c.2.1 0 .2-.5.9-11.8.5-23.2.5-34.6.5v18.3h36.6V2.1l1.5 19.6h-40.7c.3-6.6.6-13.3.6-20.3 12-.4 24.3-.4 37.1-.4zM91 1c-1.1.6-2.7 1.8-4.4 1.8-9.7.2-19.5.1-29.7.1v17.6h36.5c0-5.7 0-11.6.1-18 .4 3.5.8 7.4 1.1 11.3.2 2.5 0 5 0 7.8H54.2c.3-6.6.6-13.2.6-20.3C66.5 1 78.5 1 91 1zm375 0c-1.1.6-2.7 1.8-4.4 1.8-9.8.2-19.6.1-29.8.1v17.6h36.5c0-5.7 0-11.6.1-18 .4 3.5.8 7.4 1.1 11.3.1 2.5 0 5 0 7.8h-40.3c.3-6.6.6-13.2.6-20.3C441.5 1 453.5 1 466 1zm75 0c-1.1.6-2.7 1.8-4.4 1.8-9.8.2-19.6.1-29.8.1v17.6h36.5c0-5.7 0-11.6.1-18 .4 3.5.8 7.4 1.1 11.3.2 2.5 0 5 0 7.8h-40.3c.3-6.6.6-13.2.6-20.3C516.5 1 528.5 1 541 1zm75 0c-1.1.6-2.7 1.8-4.4 1.8-9.8.2-19.6.1-29.8.1v17.6h36.5c0-5.7 0-11.6.1-18 .4 3.5.8 7.4 1.1 11.3.2 2.5 0 5 0 7.8h-40.3c.3-6.6.6-13.2.6-20.3C591.5 1 603.5 1 616 1zm225 0c-1.1.6-2.7 1.8-4.4 1.8-9.8.2-19.6.1-29.8.1v17.6h36.5c0-5.7 0-11.6.1-18 .4 3.5.8 7.4 1.1 11.3.2 2.5 0 5 0 7.8h-40.3c.3-6.6.6-13.2.6-20.3C816.5 1 828.5 1 841 1zm-75 0c-1.1.6-2.7 1.8-4.4 1.8-9.8.2-19.6.1-29.8.1v17.6h36.5c0-5.7 0-11.6.1-18 .4 3.5.8 7.4 1.1 11.3.2 2.5 0 5 0 7.8h-40.3c.3-6.6.6-13.2.6-20.3C741.5 1 753.5 1 766 1zM241 1c-1.1.6-2.7 1.8-4.4 1.8-9.8.2-19.6.1-29.8.1v17.6h36.5c0-5.7 0-11.6.1-18 .4 3.5.8 7.4 1.1 11.3.1 2.5 0 5 0 7.8h-40.3c.3-6.6.6-13.2.6-20.3C216.5 1 228.5 1 241 1zm150 0c-1.1.6-2.7 1.8-4.4 1.8-9.8.2-19.6.1-29.8.1v17.6h36.5c0-5.7 0-11.6.1-18 .4 3.5.8 7.4 1.1 11.3.1 2.5 0 5 0 7.8h-40.3c.3-6.6.6-13.2.6-20.3C366.5 1 378.5 1 391 1zM166 1c-1.1.6-2.7 1.8-4.4 1.8-9.8.2-19.6.1-29.8.1v17.6h36.5c0-5.7 0-11.6.1-18 .4 3.5.8 7.4 1.1 11.3.1 2.5 0 5 0 7.8h-40.3c.3-6.6.6-13.2.6-20.3C141.5 1 153.5 1 166 1zm150 0c-1.1.6-2.7 1.8-4.4 1.8-9.8.2-19.6.1-29.8.1v17.6h36.5c0-5.7 0-11.6.1-18 .4 3.5.8 7.4 1.1 11.3.1 2.5 0 5 0 7.8h-40.3c.3-6.6.6-13.2.6-20.3C291.5 1 303.5 1 316 1z"/><path d="M312.4 212.1s.5-.1.7-.1c.3 6 .4 12 .4 18.5-12 .5-24.1.5-36.5.5-.5 0-.5-.5 0-.7 12-.3 23.5-.3 35.5-.3v-17.9zm75 0s.5-.1.7-.1c.3 6 .4 12 .4 18.5-12 .5-24.1.5-36.5.5-.5 0-.5-.5 0-.7 12-.3 23.5-.3 35.5-.3v-17.9zM427 231c-.5 0-.5-.5 0-.7 12-.3 23.5-.3 35.5-.3v-17.9s.5-.1.7-.1c.3 6 .4 12 .4 18.5-12.1.5-24.1.5-36.6.5zm75 0c-.5 0-.5-.5 0-.7 12-.3 23.5-.3 35.5-.3v-17.9s.5-.1.7-.1c.3 6 .4 12 .4 18.5-12.1.5-24.1.5-36.6.5zm-264.6-18.9s.5-.1.7-.1c.3 6 .4 12 .4 18.5-12 .5-24.1.5-36.5.5-.5 0-.5-.5 0-.7 12-.3 23.5-.3 35.5-.3l-.1-17.9zm450 0s.5-.1.7-.1c.3 6 .4 12 .4 18.5-12 .5-24.1.5-36.5.5-.5 0-.5-.5 0-.7 12-.3 23.5-.3 35.5-.3v-17.9zM127 231c-.5 0-.5-.5 0-.7 12-.3 23.5-.3 35.5-.3v-17.9s.5-.1.7-.1c.3 6 .4 12 .4 18.5-12.1.5-24.1.5-36.6.5zm600 0c-.5 0-.5-.5 0-.7 12-.3 23.5-.3 35.5-.3v-17.9s.5-.1.7-.1c.3 6 .4 12 .4 18.5-12.1.5-24.1.5-36.6.5zm-675 0c-.5 0-.5-.5 0-.7 12-.3 23.5-.3 35.5-.3v-17.9s.5-.1.7-.1c.3 6 .4 12 .4 18.5-12.1.5-24.1.5-36.6.5zm785.4-18.9s.5-.1.7-.1c.3 6 .4 12 .4 18.5-12 .5-24.1.5-36.5.5-.5 0-.5-.5 0-.7 12-.3 23.5-.3 35.5-.3v-17.9zm-225 0s.5-.1.7-.1c.3 6 .4 12 .4 18.5-12 .5-24.1.5-36.5.5-.5 0-.5-.5 0-.7 12-.3 23.5-.3 35.5-.3v-17.9z" style="fill:#e7e7e7"/><path class="st3" d="M640.5 97.1c.3-1.5.8-3 .9-4.5.1-9.6.1-19.1.6-29 6.5-.4 12.4-.4 18.2-.4V150h-18.6c-.1-11.3-.1-22.6.1-34.6 0-1.2-.4-2.3-.7-2.3-7.3-.1-14.6-.1-21.9 0-.5 0-1 1.3-1.5 2 0 0 0 .4-.3.9-.5 11.6-.6 22.7-1.2 33.8h-16.2V63.1c5.7 0 11.2 0 16.6.5 0 8.2 0 16 .1 23.8 0 2.9.6 5.8.9 8.6 0 0 .2.4.4 1 7.5.4 15.1.2 22.6.1zm-185.3 74c-.6-.4-1.1-.8-1.8-1.8-.5-.8-.8-1-1.2-1.2-.6-.4-1.1-.8-1.8-1.8-.4-.8-.6-1-.9-1.2 0 0-.2-.4-.2-.8-.3-.7-.5-.9-.8-1.2 0 0-.2-.4-.2-.8-.3-.7-.5-.9-.8-1.1-.1-.4-.1-.8.1-1.7.3-3 .3-5.4.3-8.3 4.3 0 8.2-.3 12.1.1 1.9.2 3.6 1.8 5.4 3 .1.2 0 .6 0 .9.3.8.6 1.4 1 2.2 5.9 4.3 10.6 3.8 15.3-1.5.3-.4.4-.7.6-.8 0 .1-.2 0 .2-.2.9-3.9 1.4-7.6 1.9-11.3l-1.4-.3c-.2.6-.5 1.2-1 1.9-.6.3-1 .6-1.7.9-.5.3-.7.6-1.1.9-.2.1-.6 0-.9.1-.5.3-.7.6-1.2.9-.7.1-1.1.1-2-.1-5 0-9.5 0-14 .1 0 0-.4.1-.7-.3-1-.5-1.6-.6-2.3-.7 0 0-.4.1-.7-.3-.6-.5-1-.6-1.3-.7 0 0-.4.1-.7-.3-.6-.5-1-.6-1.4-.7-.9-.7-1.7-1.5-2.7-2.8-.4-.8-.7-1-.9-1.2 0 0-.2-.4-.1-.9-.3-1.1-.7-1.6-1.1-2.1-4.8-8.5-4.2-17.7-3.5-26.8.3-3.2 1.6-6.4 2.8-10.1.4-.9.5-1.1.8-1.3 0 0-.1-.4.3-.7.5-.6.6-1 .7-1.3 0 0-.1-.4.3-.7.5-.6.6-1 .7-1.4.7-.9 1.5-1.7 2.8-2.7.8-.4 1-.7 1.2-.9 0 0 .4-.2 1-.1 7.7-2.9 15-2.2 22.3-1 0 0 .4-.1.7.3.6.5 1 .6 1.3.7 0 0 .4-.1.7.3.6.5 1 .6 1.4.7.3-.1.6.1.8.9.3.7.6.9.9 1.2.3.2.6.3 1.4 0 1.3-1.6 2.1-3.7 3.1-3.8 4.4-.4 8.8-.2 13.6-.2-.4 5.1-.9 9.4-1 13.7-.1 15-.1 30 0 45 0 2.5.1 5 .2 7.4 0 .4 0 .9-.4 1.7-.5.7-.6 1.1-.7 1.5 0 0 .1.4-.3.6-.5.6-.6.9-.7 1.2-1.4 2.2-2.8 4.5-4.8 6.9-.8.6-1 .9-1.1 1.3.1.3-.1.6-1 .6-1.8.6-2.9 1.3-4.1 2 0 0-.4.2-.9.1-1.4.2-2.2.6-3.1.9 0 0-.4.2-1.1.1-6.9-.1-13.1 0-19.2.1 0 0-.4.1-.8-.3-1.3-.5-2.3-.6-3.2-.7 0 0-.4.1-.6-.4-1.7-1-3.1-1.4-4.5-1.7m11.5-41.5c3.7 4.5 8.2 3 13.2 1.3.2-.4.4-.8.7-1.8.6-.4 1.1-.8 2.5-1.2.3-5.9.6-11.9.8-17.8 0-.4-1-.8-2.2-1.2-6.3-4.3-11.2-4.3-15.7.2-3 6.8-3.6 13.4.7 20.5z"/><path class="st4" d="M100.4 86s.2.4.2.8c.3.7.5.9.8 1.2 0 0 .2.4.2.8.3.7.6.9.8 1.2.1.4.1.8.1 1.8.2 1.2.6 1.7.9 2.2 0 0 .2.4.1.9.2 1.4.5 2.2.9 3.1.4 0 1 .1 1.1-.1 2.8-7.5 5.5-15 8.9-22.9.8-1.3 1-2.3 1.1-3.2 0-.4 0-.8.3-1.6.5-.7.6-1.1.7-1.5 0 0-.1-.4.3-.7.5-.6.6-1 .7-1.3 0 0-.1-.4.3-.7.5-1 .6-1.6.7-2.3 0 0-.1-.4.5-.5 5.8-.2 11.1-.4 16.4-.1 1.1.1 2.1 1.9 3.2 3-6.3 15.7-12.7 31.4-19 47.1-1.1 2.8-2.1 5.7-3.9 8.9-.7 9.4-.7 18.5-.7 27.6H96.5c0-7.5.1-14.6-.1-21.7 0-1.7-.7-3.3-1.1-5-4.2-9.3-8.5-18.6-12.4-28.1-4-9.6-7.7-19.3-11.4-29.8 1.4-1.2 2.6-2 3.9-2.1 3.8-.2 7.6-.4 11.3.1 1.9.2 3.7 1.8 5.6 2.8 1 2.4 2.1 4.8 3.2 7.8.3.8.6 1 .8 1.2 0 0 .2.4.2.8.3.7.5.9.8 1.2.1.4.1.8.2 1.7.3.8.5 1 .8 1.2 0 0 .2.4.2.8.3.7.6.9.8 1.2.1.4.1.8.1 1.8.4 1.3.7 1.8 1 2.4zm693 45c1 1.4 1.9 2.8 3 4.9 2.1 1.2 4.1 1.7 6.2 2.2 5 .7 8.2-1.4 9.3-5.8 5.5-.3 10.7-.7 15.8-.7.8 0 2.2 1.7 2.2 2.6-.2 6.8-5 10.9-9.6 14.6-6.9 5.4-27 5.6-33.8.3-4.4-3.5-9.8-6.6-11-13.8-.3-9-.7-17.2-1.1-25.3 0 0 0-.4.3-.8.5-1.3.6-2.3.7-3.2 0-.4 0-.8.3-1.6.5-.7.6-1.1.7-1.5 0 0-.1-.4.3-.7.5-.6.6-1 .7-1.3.3-.4.6-.8 1.3-1.6.5-.7.6-1 .7-1.4 1.1-1.2 2.1-2.4 3.8-3.7.8-.4 1-.7 1.2-.9 0 0 .4-.2.8-.2.7-.3.9-.5 1.2-.8 0 0 .4-.2.8-.2.7-.3.9-.5 1.2-.8 0 0 .4-.2.8-.2.7-.3.9-.5 1.2-.8.4-.1.8-.1 1.8.1 4.2.2 7.9-.1 11.6-.2 2.6-.1 5.2-.1 7.8-.2.4 0 .9 0 1.7.4.7.5 1.1.6 1.5.7 0 0 .4-.1.7.3.6.5 1 .6 1.3.7 0 0 .4-.1.7.3.6.5 1 .6 1.3.7.3-.1.6.1.8.8.3.7.6.9.8 1.2 2.7 4.1 5.4 8.1 8 12.9.6 2.5 1.3 4.3 2 6.1.1.5.1.9-.2 2-.6 4-.9 7.4-1.1 11h-30.4c-1.7 0-3.4.6-5.1.9-.3.4-.6.8-.9 1.8.2.7.5.9.7 1.2m16.6-18.2c.2-.3.4-.6 1.1-.9.1-.1.2-.3.2-.4-.2-.2-.4-.3-.8-.9 0 0 0-.4-.1-1-.3-.2-.5-.4-.9-1 0 0 .1-.4 0-1-.3-.2-.6-.4-1.2-1.3-3.4-3.9-7.6-2.9-11.4-1.3-3.4 1.4-3.9 4.6-2.8 8.7 5.1-.2 10.2-.4 15.9-.9zm-118.6 22.1c6.7 5 11.2 4.4 16.6-1.9.6-.7 1.5-1.5 2.3-1.5 4.5-.3 8.9-.3 14-.2 1.2 1.8 1.8 3.3 2.4 4.8 0 .4 0 .9-.4 1.7-.5.7-.6 1.1-.7 1.5 0 0 .1.4-.3.7-.5.6-.6 1-.7 1.3 0 0 .1.4-.3.7-.5.6-.6 1-.7 1.4-1.1 1.2-2.1 2.4-3.8 3.7-.8.4-1 .7-1.2.9 0 0-.4.2-.9.1-1.4.6-2.2 1.2-3.1 1.9 0 0-.4.2-1 .1-3.1.6-5.5 1.2-8 1.9-.4.1-.8.1-1.8.3-.8.2-1.1.3-1.2.6-10.5.3-20.2-1.4-26.7-10.8-1.9-2.7-2.9-6-4.3-9.9 0-8.3 0-15.8-.1-23.3 1.3-3.1 2.5-6.1 4.2-9.6.5-.8.6-1.1.7-1.5 1.1-1.2 2.1-2.4 3.8-3.7.8-.4 1-.7 1.2-.9 0 0 .4-.2.8-.2.7-.3.9-.5 1.2-.8 0 0 .4-.2.8-.2.7-.3.9-.5 1.2-.8 0 0 .4-.2.8-.2.7-.3.9-.5 1.2-.8.4-.1.8-.1 1.7.1 3.9.1 7.3-.4 10.7-.2 4.7.3 9.3 1.2 13.9 1.9 0 0 .4-.1.7.3.6.5 1 .6 1.3.7.6.4 1.1.8 1.8 1.8.4.8.6 1 .8 1.2.2.3.4.6 1 1.3.7.5 1 .6 1.4.7.3-.1.6.1.8.8.3.7.6.9.9 1.2.3.4.7.8 1.1 1.8.4.8.6 1 .9 1.2.1.4.1.8.1 1.9.7 7.7 1.5 14.6 2.4 22.1h-31.2c-1.7 0-3.4.6-5.1.9-.3.2-.6.4-1.2.9-.2.6 0 .9.1 1.2 0 0 .2.4.2.8.3.7.5.9.8 1.2 0 0 .2.4.1.9.1 1 .5 1.5.8 2m-1.5-24.7c-.1.4-.2.7-.2 1.6.3.4.6.8 1.4 1.9 5.1-.2 10.3-.5 15.8-.9 0 0 .4.1.8 0l.4-.1c-.1-.2-.3-.4-.7-1.4-2.5-7.4-8.5-9.5-15.5-5.2-.1.4-.2.7-.5 1.7-.3.8-.7 1.5-1.5 2.4zM175.8 91.9s.4-.1.6.3c.6.5.9.6 1.3.6 0 0-.1 0-.1.2.3.4.5.6.8.8 6.8 5.1 9.4 12 10.5 20.4 1.1 8.4.5 16.2-2.9 23.7-3.3 7.1-8.6 12-16.6 13.7-9.9 2.1-19.3 1.4-27.7-4.7-4.5-3.3-7.1-8.1-8.2-13.4-2.2-10.6-3.1-21.3 2.2-31.1 2.2-4.1 6.7-6.9 10.8-10.3 1.8-.8 2.9-1.4 4-2.1 0 0 .4-.2 1-.1 6.8 0 13-.1 19.1-.2.4 0 .9 0 1.7.4.7.5 1.1.6 1.5.7 0 0 .4-.1.7.3.5.6.9.7 1.3.8m-6.7 37.9c.1-.4.2-.7.3-1.5 0 0 .2-.4.8-.8.3-1.4 1.1-3 .9-4.3-.6-4.1-1.7-8.1-2.7-12.5 0 0 .1-.4 0-1-.3-.2-.5-.4-1.1-1.3-6.1-4.3-10.9-3.7-15.3 2-.5 5.7-1 11.3-1.3 17 0 .8 1.2 1.8 2 3 0 0-.1.4-.1 1.1.3.5.6 1 1.2 2.2 3.4 3.4 7.6 2.4 12.1 1.3.2-.4.4-.8.7-1.7.3-.4.7-.8 1.6-1.4.1-.4.2-.7.3-1.5-.1-.1.1-.4.6-.6zm265.3-30.9c6.4 8.9 7.1 18.9 5.5 29.4-1 6.6-3.2 12.3-8.1 17.1-6.9 6.6-14.9 8-24.1 6.9-5.9-.7-11.1-1.9-15.6-5.9-4.1-3.7-7-7.8-7.6-14.2 0-8.4 0-15.9-.1-23.4 0 0-.1-.4.3-.7.5-.9.6-1.6.7-2.2.8-6 5.6-9 9.5-12.6 1-1 2.4-1.5 4.3-2.2 1.2-.3 1.7-.6 2.2-.9 0 0 .4-.2 1-.1 6.8 0 13-.1 19.1-.2.4 0 .9 0 1.7.4.7.5 1.1.6 1.5.7 0 0 .4-.1.7.3.6.5 1 .6 1.3.7 0 0 .4-.1.7.3.6.5 1 .6 1.3.7 0 0 .4-.1.7.3.6.5 1 .6 1.3.7.9.7 1.8 1.5 2.6 2.8.4 1.1.8 1.6 1.1 2.1m-31.5 11.5c-1.8 6.6-3.1 13.1.7 20 0 0-.1.4-.1 1.1.3.5.6 1 1.2 2.3 5.1 3.5 11.8 3.6 13.5-.2 3.2-7 3.7-14.3 1.5-22-1.2-4.2-4.1-6-7.4-5.8-3 .2-5.8 2.7-9.4 4.6z"/><path class="st3" d="M513.6 139s-.2-.4-.2-.8c-.3-.7-.5-.9-.8-1.2 0 0-.2-.4-.2-.8-.3-.7-.5-.9-.8-1.1-.1-.4-.1-.8.1-1.7.2-3.3-.2-6-.2-8.8.2-6.3.6-12.5.9-18.7 0 0-.1-.4.3-.7.5-.6.6-.9.7-1.2.8-6.1 6.2-8.2 10.8-11.7.8-.5 1-.8 1.2-1.1 0 0 .4-.2.9-.1 1.1-.2 1.6-.6 2.1-.9 0 0 .4-.2 1 0 6.8 0 13-.1 19.1-.2.4 0 .9 0 1.7.4.7.5 1.1.6 1.5.7 0 0 .4-.1.7.3.6.5 1 .6 1.3.7 0 0 .4-.1.7.3.6.5 1 .6 1.3.7 0 0 .4-.1.7.3.6.5 1 .6 1.3.7.9.7 1.7 1.5 2.6 2.8.3 1.1.7 1.6 1 2.2.7.8 1.3 1.5 2.1 2.9.4.8.7 1 .9 1.2 0 0 .2.4.2.8.3.7.5.9.8 1.2 0 0 .2.4 0 1 .3 8.9.7 17.1 1.1 25.3 0 0 .1.4-.3.8-.5 1.3-.6 2.3-.7 3.2 0 0 .1.4-.3.6-.5.6-.6.9-.7 1.2-.3.8-.6 1.6-1.3 2.8-.3.8-.4 1.1-.7 1.3 0 0 .1.4-.3.7-.5.6-.6 1-.7 1.4-1.4 1.5-2.8 3.1-4.8 4.7-.8.4-1 .7-1.2 1 0 0-.4.2-.8.2-.7.3-.9.6-1.2.8 0 0-.4.2-.8.2-.7.3-.9.5-1.2.8-.4.1-.8.1-1.9 0-2.5.2-4.3.5-6.1.9 0 0-.4.2-.9.3-.7.2-1 .3-1.1.6-8.9.1-17.4-.9-24.1-8.6-.6-.8-.9-1-1.3-1.1-.3.1-.6-.1-.8-.8-.3-.7-.6-.9-.9-1.2 0 0-.2-.4-.2-.8 0-1-.3-1.2-.5-1.5m20.4-32.8c-.2.4-.3.7-.6 1.7-.7.7-1.3 1.5-2.5 2.3-.1.4-.2.7-.3 1.5 0 0-.2.4-.9.7-1.6 5.6-2.8 11.2.9 17 0 0-.1.4 0 1 .3.2.6.4 1.1 1.2 1.3 1.2 2.5 2.3 3.9 4.3 2.2 1.6 4.3 2.4 6.6-.9 1.5-1.3 3-2.6 5.2-4 2.1-5.9 3.7-11.9 0-18.2 0 0 .1-.4.3-1.1-.4-.8-.9-1.7-2-2.8-2.8-4.8-7.3-2.6-11.7-2.7zM198.6 142s-.2-.4-.1-1c.1-17 .1-33.3.1-49.6h15.9c0 11.8-.1 23.3.1 34.7 0 1.6 1.2 3.2 1.8 4.9 0 0 .2.4.2.8.3.7.5.9.8 1.1.8.6 1.6 1.3 2.8 2.4 2.6 2.4 4.6 2.2 6.3-.3 0 0 .4-.2.8-.2.7-.3.9-.5 1.2-.8 1.3-1.2 2.6-2.3 4.3-4.1.5-13.2.5-25.9.5-38.6h17.5v59l-15.2-1.4-1.1-2.5c-5.7 2.1-11.4 4.8-17.4 6.3-6.7 1.7-14.4-2.7-17.7-9.7-.3-.6-.6-.8-.8-1zm148.8-9c.2.3.4.6 1.1 1.3 10.2.4 20 .4 29.5.4v14.9h-49V63.5h17.4v64.4c0 1.7.7 3.4 1 5.1zm387.2-26c-.1-.8-.1-1.5.2-2.9.6-4.7.8-8.7 1-13.8 5.9 2.8 14.1-4.1 16.6 8.1l1-3.7c.4-.6.8-1.1 1.8-1.8.8-.4 1-.6 1.2-.9.4-.3.8-.7 1.8-1.1.8-.4 1-.6 1.2-.9.4-.1.8-.1 1.9-.1 3 .1 5.2.1 7.7.1v14.9l-10.6 4c-1.5 1.3-2.9 2.7-4.3 4.1-.5 12.5-.5 24.5-.5 36.9-6.4 0-11.8 0-17.2-.5 0-12.1 0-23.7-.1-35.2 0-1.7-.6-3.5-.9-5.2 0 0-.2-.4-.2-.9-.1-.7-.4-.9-.6-1.1z"/><path class="st0" d="M282.5 110.1c-.3.8-.5 1.6-1.3 2.9-.6 12.7-.7 24.8-1.3 37h-16.8V91h15.2l1.6 4.2c.7-.6 1.7-1.4 3.4-2.3.8-.4 1-.8 1.1-1.1 0 0 0 .1.2.1.4-.3.6-.6.8-.9 0 0 .4-.2.8-.2.7-.3.9-.5 1.2-.8 0 0 .4-.2 1-.1 2.9.1 5.2.1 7.7.1v14.9l-6.6 2.9s-.4.2-.9.2c-.7.3-.9.6-1.1.8-.4.1-.8.1-1.8.1-1.5.4-2.4.8-3.2 1.2z"/><path class="st4" d="M892 39.5v31.9h-16c-.6-8.1-1.3-16.1-2.2-24.2-.3-.2-.5-.6-.4-1.2-.3-1.7-.7-2.9-1.2-4.1-2.6-3.9-5-8.1-8-11.7-1.9-2.2-1.4-3.6 0-5.3l9.6-11.2c6.8 2.4 9.7 9.6 14.2 15.9.4.8.7 1 .9 1.2 0 0 .2.4.2.8.3.7.5.9.8 1.2 0 0 .2.4.1.9.2 1.1.6 1.6.9 2.1 0 0 .2.4.1.9.2 1.1.6 1.6.9 2.1-.1.2.1.5.1.7zM890.8 185c.5 2.5.7 5 1.1 7.8.1.4.1.8-.3 1.2-.5 1-.6 1.6-.7 2.3 0 0 .1.4-.3.7-.5 1-.6 1.6-.6 2.3 0 0 0 .4-.3.7-.5.6-.6 1-.7 1.3 0 0 .1.4-.3.7-.7.6-.9.9-1.2 1.1-3.5 4.9-7 9.8-11 14.9-.8.6-.9.9-1.1 1.2-.7.9-1.4 1.8-2.9 2.6-2.1 0-3.5.1-4.9.2-.3-.4-.6-.8-1.1-1.8-.4-.8-.6-1-.9-1.2 0 0-.2-.4-.2-.8-.3-.7-.5-.9-.8-1.2-.3-.4-.6-.8-1.1-1.8-.4-.8-.6-1-.9-1.2 0 0-.2-.4-.2-.8-.3-.7-.5-.9-.8-1.2l-3.1-5.7c7-2.8 10.2-8.8 13.7-15.4.8-1.6.9-2.9 1.1-4.2 0 0 0-.4.3-.7 1.6-.9 2.9-2 4.1-2 4.2.1 8.3.6 12.4.9.1.1.5 0 .7.1zM28.6 46.9c-1 3.2-1.9 6.2-2.9 9.8H9.1V45.4c.4-9.4 4.2-16.7 9.6-23.4.8-.9 1.4-2 2-3.1 1.6-2.7 4-2.8 5.8-.9 3.2 3.2 6 6.8 8.7 10.4.7.9.5 2.9 0 4.1-1.4 3.2-3.2 6.1-5.6 9.5-.8 1.6-.9 2.9-1.1 4.2.1.1.2.5.1.7zM9 188.5v-18.1h16.9c.6 5.1 1.3 10.1 2.2 15.3.3.2.5.6.4 1.1.2 1.7.5 2.9.9 4 .7 1.4 1.1 3.2 2.2 4.2 4.1 4 1.4 6.4-1.7 8.8-2.6 2.1-5.5 3.9-7.8 6.3-1.9 2-3.7 1.4-4.6-.2-3.9-6.4-8.2-12.9-8.5-21.4z"/><path class="st0" d="M693.1 2c.4 6.2.4 12.3.4 18.7h-36.6V2.4c11.4 0 22.9 0 34.7-.1.6-.2.9-.3 1.5-.3z"/><path class="st5" d="M347.5 132.5c-.4-1.2-1-2.9-1-4.6-.1-19.5 0-39 0-58.5v-5.9H329v86.2h49.1v-14.9c-9.6 0-19.3 0-29.3-.3 9.9-.3 20-.3 30.4-.3v17.7h-51.5V62.3h19.7c.1 23.2.1 46.5.1 70.2z"/><path class="st6" d="M616.4 63.1h-16.6V150H617.4c-.8.7-1.5 1.9-2.3 1.9-4.6.2-9.3.3-13.9-.1-1.3-.1-3.5-2.1-3.5-3.3-.2-28.7-.2-57.4-.2-86.4 6.8 0 13.2 0 19.5.4-.1.5-.6.6-.6.6z"/><path class="st7" d="M235.6 149.5c5.1 0 10.1.5 15.2.9v-59h-17.5c0 12.7 0 25.4-.3 38.3-.3-12.9-.3-26-.3-39.4h19.7c.1 1.3.2 2.7.2 4.1v47.9c0 1.9.7 3.9.5 5.8-.2 1.4-1.3 3.6-2.2 3.7-4.6.4-9.3.2-14 .1-.5 0-.9-1.3-1.3-2.4zm-19.1-19c-.7-1.2-1.9-2.8-1.9-4.4-.2-11.4-.1-22.9-.1-34.7h-15.9c0 16.3 0 32.6-.1 49.4-.7-1.5-1.9-3.4-1.9-5.3-.2-14.9-.1-29.9-.1-45.2h20v40.2z"/><path class="st5" d="M641.7 150.4c6-.4 12.1-.4 18.5-.4V63.1c-5.9 0-11.8 0-18.2-.1 6-.6 12.4-1 19.2-1.5v91c-6.6-.6-13-1.1-19.5-2.1zM278.2 90.5c-4.8.4-9.8.4-15.1.4V150h18.2c-.9.7-1.8 1.9-2.8 1.9-5.1.2-10.3.1-16.2.1V90.1c4.9 0 10.4 0 15.9.4zm-182.8 33c.3 1.2 1 2.8 1 4.5.1 7.1.1 14.2.1 21.7h18.4c0-9.2 0-18.2.4-27.4.4 9.6.4 19.3.4 29.4H95.5c0-9.3 0-18.5-.1-28.2zM502 156.9c-.4-2.2-.5-4.7-.5-7.2 0-15-.1-30 0-45 0-4.3.6-8.6 1-13.7-4.8 0-9.2-.2-13.6.2-1 .1-1.8 2.1-3 3.5-.3-1.3-.3-2.8-.3-4.5h16.8c0 22.1 0 44.3-.4 66.7zm234.6-7h17.2c0-12.4 0-24.4.3-36.6.3 12.5.3 25.2.3 39.1-6.3-.5-12.6-1-18.6-2 .3-.4.8-.5.8-.5zM618 115.1c.1-.6.6-1.9 1.1-1.9 7.3-.1 14.6-.1 21.9 0 .4 0 .7 1.1.7 1.8-8 .1-15.6.1-23.7.1z"/><path class="st7" d="M759 109c2.9-1.3 6.3-2.6 10.2-4V90.1c-2.5 0-4.7 0-7.4-.1 1-.7 2.3-1.7 3.8-1.9 2.9-.5 5.2-.1 5 3.9-.3 5.1-.1 10.3-.1 15.5-3.8.5-7.5 1-11.5 1.5z"/><path class="st5" d="M794 128c1.2-.4 2.9-.9 4.7-1 10-.1 19.9 0 30.4 0 .2-3.6.5-7 1-10.7.3 3.6.3 7.4.3 11.7H794z"/><path class="st7" d="M290 108c1.6-.9 3.6-1.8 6.2-2.9v-15c-2.5 0-4.7 0-7.5-.1 2.4-.9 5.2-1.7 8.5-2.7V108H290z"/><path class="st5" d="M753.1 94.7c.2.7 0 1.4-.6 3.7-2.5-12.3-10.7-5.3-16.6-8.1-.2 5.1-.4 9.1-.9 13.4-.6-4.3-.9-8.8-1.2-13.7 5.1 0 10.3-.3 15.3.2 1.3.2 2.4 2.9 4 4.5z"/><path class="st8" d="M736.5 149.5c0 .5-.4.5-.7.5-.3-13.3-.3-26.7-.3-40.5.3 1.3.9 3 .9 4.7.1 11.6.1 23.2.1 35.3z"/><path class="st1" d="M774.1 110c.7 7.9 1.1 16.1 1.4 24.7-2.9-6.2-4-13-2.2-20.1.3-1.4.3-2.9.8-4.6z"/><path class="st6" d="M713.5 91.6c-4.4-.3-9-1.3-13.7-1.6-3.4-.2-6.8.3-10.3.1 8.1-3.7 16-1.8 24 1.5z"/><path class="st9" d="M281.4 149.5c-.1.5-.5.4-.8.4-.1-12.1 0-24.3.5-36.7.3 11.9.4 23.9.3 36.3z"/><path class="st1" d="M384.1 109c.4 7.3.5 14.8.4 22.8-3.2-7.2-2.1-14.9-.4-22.8z"/><path class="st6" d="M478.5 90.6c-7.1-.8-14.4-1.6-21.9 1.4 6.6-5.4 14.1-4.5 21.9-1.4z"/><path class="st8" d="M617.4 149.6c-.1.5-.5.4-.8.4-.1-11.1 0-22.2.5-33.6.3 10.7.4 21.7.3 33.2zm-1-86.1c0-.5.4-.5.7-.5.3 10.7.3 21.3.3 32.5-.3-2.4-.9-5.3-.9-8.2-.1-7.8 0-15.5-.1-23.8z"/><path class="st7" d="M811.4 89.5c-2.4.4-4.9.4-7.5.5-3.7.1-7.4.3-11.3.2 5.9-3.1 12.2-2.2 18.8-.7z"/><path class="st1" d="M671.1 109c.4 7.3.4 14.7.4 22.7-.6-5.5-1.3-11.4-1.7-17.4-.1-1.6.6-3.4 1.3-5.3z"/><path class="st6" d="M512.1 106c0 6-.4 12.3-.6 18.5-.1 2.8.3 5.5.1 8.5-.1-8.8 0-17.8.5-27z"/><path class="st7" d="M170.4 89.5c-5.9.4-12.1.5-18.7.6 5.7-3.2 12.1-2.1 18.7-.6zm251 0c-5.9.4-12.1.5-18.7.6 5.7-3.2 12.1-2.1 18.7-.6zm127 0c-5.9.4-12.1.6-18.7.6 5.7-3.2 12.1-2.1 18.7-.6z"/><path class="st5" d="M92.4 65.5c-1.9-.5-3.7-2.1-5.6-2.4-3.7-.5-7.6-.2-11.3-.1-1.3.1-2.5.8-3.9 1.7-.5-.5-.9-1.4-1.4-2.8 7.1 0 13.6-.1 20 .1.8.2 1.5 2 2.2 3.5zM566.9 131c-.8-7.9-1.2-16.2-1.5-24.8 3.6 7.7 1.7 16.2 1.5 24.8zM640 97c-7 .2-14.6.4-22.3.1 7.2-.2 14.5-.2 22.3-.1z"/><path class="st7" d="M464.5 174.4c5.9-.4 12.1-.5 18.8-.4-5.9.3-12.2.5-18.8.4zM226 135c-1.3 2.5-3.3 2.8-5.5.4 1.7-.4 3.4-.4 5.5-.4z"/><path class="st6" d="M727 135.9c-.9-1.3-1.5-2.8-2.3-4.5 4.7-1.1 2.3 2.4 2.3 4.5zm-21 16c2.1-.7 4.5-1.4 7.4-2-2.1.8-4.6 1.4-7.4 2zM877.6 222.4c1.4-.4 2.8-.5 4.7-.4-1.5.3-3.1.5-4.7.4z"/><path class="st7" d="M455.4 171.4c1.2.1 2.6.4 4 1.2-1.2-.1-2.5-.5-4-1.2zm33.5 1.6c.8-.7 2-1.4 3.5-2-.8.7-2 1.4-3.5 2z"/><path class="st6" d="M544 151.9c1.4-.4 3.2-.7 5.4-1-1.4.5-3.2.8-5.4 1z"/><path class="st7" d="M150.1 90c-.8.7-1.9 1.3-3.4 2 .8-.7 1.9-1.3 3.4-2z"/><path class="st6" d="M714.9 150c.5-.7 1.3-1.4 2.5-2-.5.7-1.3 1.3-2.5 2z"/><path class="st5" d="M882.4 42.4c.4.8.8 1.9 1.1 3.5-.4-.8-.7-2-1.1-3.5z"/><path class="st10" d="M20.4 190.6c-.4-.8-.8-1.9-1-3.5.5.8.8 1.9 1 3.5z"/><path class="st7" d="M883.1 186.9c.2 1.1.1 2.4-.4 3.9-.2-1.1-.1-2.4.4-3.9z"/><path class="st10" d="M19.9 46c-.2-1.1-.1-2.4.4-3.8.2 1.1 0 2.4-.4 3.8z"/><path class="st7" d="M460.4 173.4c.8-.2 1.7-.1 2.8.3-.7.1-1.6.1-2.8-.3zm24.5.6c.5-.4 1.3-.7 2.5-1-.5.4-1.3.7-2.5 1zm290.2-68.1c.2.7.1 1.7-.3 2.8-.1-.7 0-1.6.3-2.8z"/><path class="st6" d="M104.4 97.6c-.4-.5-.7-1.3-1-2.5.5.5.8 1.3 1 2.5z"/><path class="st7" d="M282.9 110c.5-.4 1.3-.8 2.5-1.1-.5.5-1.3.8-2.5 1.1z"/><path class="st5" d="M565.9 135.1c-.2-.7-.1-1.7.3-2.8.1.7 0 1.6-.3 2.8z"/><path class="st7" d="M115.1 71.9c.2.8 0 1.8-.5 2.9-.1-.8.1-1.7.5-2.9zm334.3 66.5c.3.2.7.7 1.1 1.6-.4-.3-.7-.8-1.1-1.6zm242-3.8c-.4-.2-.7-.7-.9-1.6.4.3.7.8.9 1.6zm-233 12.7c.5-.2 1.1-.1 1.9.3-.5.2-1.1.1-1.9-.3z"/><path class="st6" d="M103.5 93.6c-.4-.2-.7-.7-1-1.6.4.3.7.8 1 1.6z"/><path class="st7" d="M528.1 90c-.2.4-.7.7-1.6 1 .3-.4.8-.7 1.6-1zm-127 0c-.2.4-.7.7-1.5 1 .2-.4.7-.7 1.5-1z"/><path class="st6" d="M100.5 85.6c-.4-.2-.7-.7-1-1.6.4.3.7.8 1 1.6z"/><path class="st7" d="M118.2 63.9c.2.5.1 1.1-.3 1.9-.2-.5-.1-1.1.3-1.9z"/><path class="st5" d="M902.5 38.6c-.4-.2-.7-.7-1-1.6.4.3.7.8 1 1.6zm-1-3c-.4-.2-.7-.7-1-1.6.4.3.7.8 1 1.6z"/><path class="st1" d="M385.2 106c.2.5.1 1.1-.3 1.9-.2-.6-.1-1.2.3-1.9z"/><path class="st7" d="M434.4 98.6c-.4-.2-.7-.7-1-1.6.5.3.8.8 1 1.6zm127 0c-.4-.2-.7-.7-1-1.6.5.3.8.8 1 1.6zm228.8-8.5c.1.3-.2.5-.7.8 0-.2.2-.5.7-.8zm24.4.6c-.2.1-.6 0-1-.4.3-.1.6 0 1 .4zm-639 1c-.2.1-.6 0-1-.4.3-.1.6 0 1 .4zm109.6-.6c.1.3-.1.6-.6.9-.1-.4.1-.6.6-.9zm141.4.6c-.2.1-.6 0-1-.4.2-.1.6 0 1 .4z"/><path class="st6" d="M480.6 91.7c-.2.1-.6 0-1-.4.3-.1.6 0 1 .4z"/><path class="st7" d="M525.1 91.1c.1.2-.1.6-.5 1.1-.1-.1.1-.5.5-1.1zM777.2 100.9c.1.2 0 .6-.4 1-.1-.3 0-.6.4-1z"/><path class="st6" d="M449.3 99.9c-.1.1-.2.3-.4.8-.3-.2-.2-.5.4-.8z"/><path class="st7" d="M449.6 165.3c.3-.1.5.2.8.7-.2 0-.5-.2-.8-.7zm104-73.6c-.2.1-.6 0-1-.4.2-.1.6 0 1 .4zm205.6-1.6c.1.3-.2.6-.7.9 0-.3.2-.6.7-.9zm-36.8 9.6c-.3.1-.5-.2-.8-.7.2 0 .5.2.8.7z"/><path class="st6" d="M685.2 91.1c.1.3-.2.5-.7.8 0-.2.2-.5.7-.8z"/><path class="st7" d="M788.2 91.1c.1.3-.2.5-.7.8 0-.2.2-.5.7-.8zm28.4.6c-.2.1-.6 0-1-.4.3-.1.6 0 1 .4zm-37.4 6.2c.1.2 0 .6-.4 1-.1-.3 0-.6.4-1z"/><path class="st6" d="M676.2 97.9c.1.2 0 .6-.4 1-.1-.3 0-.6.4-1zm-226 0c.1.2 0 .6-.4 1-.1-.3 0-.6.4-1z"/><path class="st7" d="M177.6 92.7c-.2.1-.6.1-1-.3.2-.2.5-.1 1 .3zm316.2 77.4c-.1-.2.1-.6.6-1 .1.2-.1.6-.6 1zM284.2 91.9c.1.2-.1.6-.5 1-.1-.2 0-.5.5-1zm168.2 76.4c.2 0 .5.2 1 .7-.2 0-.6-.2-1-.7z"/><path class="st5" d="M499.8 162c-.1-.2 0-.6.4-.9.1.2 0 .6-.4.9z"/><path class="st6" d="M513.2 103.9c.1.2 0 .6-.4 1-.1-.2 0-.6.4-1zm362.4 115.4c.3-.1.5.2.8.7-.2 0-.5-.2-.8-.7zm10.2-.2c-.1-.2.1-.6.6-1 .1.2-.1.6-.6 1zm-11.2-1.8c.3-.1.5.2.8.7-.2 0-.5-.2-.8-.7zm-2-3c.3-.1.5.2.8.7-.2 0-.5-.2-.8-.7zm-1-2c.3-.1.5.2.8.7-.2 0-.5-.2-.8-.7z"/><path class="st5" d="M899.4 30.7c-.3.1-.5-.1-.8-.6.2-.1.5.1.8.6zm1 2c-.2.1-.5-.2-.8-.7.2 0 .5.2.8.7zm-165.8 74.6c.3-.1.5.1.8.6-.2.1-.5-.1-.8-.6z"/><path class="st7" d="M287.8 108.9c-.1-.3.2-.6.7-.9 0 .3-.2.6-.7.9z"/><path class="st5" d="M565.4 104.7c-.3.1-.5-.2-.8-.7.2 0 .5.2.8.7z"/><path class="st7" d="M117.2 66.9c.1.2 0 .6-.4 1-.1-.2 0-.6.4-1zm-1 2c.1.2 0 .6-.4 1-.1-.3 0-.6.4-1z"/><path class="st6" d="M687.2 90.1c.1.3-.2.5-.7.8 0-.2.2-.5.7-.8zM96.4 74.7c-.3.1-.5-.1-.8-.6.2-.1.5.1.8.6zm1 2c-.3.1-.5-.2-.8-.7.2 0 .5.2.8.7zm1 3c-.2.1-.5-.2-.8-.7.2 0 .5.2.8.7zm1 2c-.3.1-.6-.2-.8-.7.2 0 .5.2.8.7zm2 6c-.3.1-.5-.2-.8-.7.2 0 .5.2.8.7zm1 2c-.3.1-.6-.2-.8-.7.2 0 .5.2.8.7z"/><path class="st7" d="M776.2 102.9c.1.2 0 .6-.4 1-.1-.3 0-.6.4-1zM173.6 90.7c-.2.1-.6 0-1-.4.3-.1.6 0 1 .4zm113.6-.6c.1.2-.2.5-.7.8 0-.2.2-.5.7-.8zm437.2 12.6c-.3.1-.5-.2-.8-.7.2 0 .5.2.8.7zm-299.8-12c-.2.1-.6 0-1-.4.3-.1.6 0 1 .4z"/><path class="st5" d="M564.4 102.7c-.3.1-.5-.1-.8-.6.2-.1.5.1.8.6z"/><path class="st7" d="M551.6 90.7c-.2.1-.6 0-1-.4.3-.1.6 0 1 .4zm267 2c-.2.1-.6 0-1-.4.3-.1.6 0 1 .4z"/><path class="st6" d="M513.6 139.3c.2-.1.5.2.8.7-.2 0-.5-.2-.8-.7zm212.2-.2c-.1-.2 0-.6.4-1 .1.3 0 .6-.4 1zm-213.2-1.8c.3-.1.5.2.8.7-.2 0-.5-.2-.8-.7zm170.6-45.2c.1.3-.2.5-.7.8 0-.2.2-.5.7-.8z"/><path class="st5" d="M564.8 137c-.1-.2 0-.6.4-1 .1.3 0 .7-.4 1z"/><path class="st6" d="M715.6 92.7c-.2.1-.6 0-1-.4.3-.1.6 0 1 .4zm-204 42.6c.3-.1.6.2.8.7-.2 0-.5-.2-.8-.7z"/><path class="st5" d="M756.2 92.1c.1.3-.2.5-.7.8 0-.2.2-.5.7-.8z"/><path class="st7" d="M786.2 92.1c.1.3-.2.5-.7.8 0-.2.2-.5.7-.8zm-558 42c.1.3-.2.5-.7.8 0-.2.2-.5.7-.8z"/><path class="st6" d="M451.2 95.9c.1.2 0 .6-.4 1-.1-.3 0-.6.4-1z"/><path class="st7" d="M217.4 132.7c-.3.1-.6-.2-.9-.7.3 0 .6.2.9.7z"/><path class="st6" d="M562.7 141.1c.1 0 .2-.3.4-.8.3.2.2.5-.4.8z"/><path class="st7" d="M178.4 93.7c-.3.1-.6-.1-.8-.6.3-.1.5.1.8.6zm252.2 0c-.2.1-.6 0-1-.4.3-.1.6 0 1 .4zm259.8 38c-.2.1-.5-.2-.8-.7.2 0 .5.2.8.7z"/><path class="st6" d="M718.4 95.7c-.2 0-.5-.2-.8-.7.2 0 .5.2.8.7z"/><path class="st7" d="M820.4 94.7c-.2 0-.5-.2-.8-.7.2 0 .5.2.8.7z"/><path class="st5" d="M793.4 130.7c-.3.1-.5-.2-.8-.7.2 0 .5.2.8.7z"/><path class="st7" d="M689.5 129.7c-.2-.1-.3-.4-.3-.7.2 0 .3.5.3.7zm-131.9-36c-.2.1-.6 0-1-.4.3-.1.6 0 1 .4z"/><path class="st6" d="M681.2 93.1c.1.3-.2.6-.7.8 0-.2.2-.5.7-.8z"/><path class="st7" d="M784.2 93.1c.1.3-.2.5-.7.8 0-.2.2-.5.7-.8z"/><path class="st6" d="M484.4 94.7c-.3.1-.5-.2-.9-.7.3 0 .6.2.9.7z"/><path class="st7" d="M447.6 161.3c.3-.1.5.2.8.7-.2 0-.5-.2-.8-.7z"/><path class="st5" d="M500.8 160.1c-.1-.2 0-.6.4-1 .1.3 0 .6-.4 1z"/><path class="st7" d="M720.6 97.7c-.2.1-.5 0-1-.4.3-.1.6.1 1 .4z"/><path class="st6" d="M702.8 152.8c-.1-.3.1-.5.6-.7.1.2-.1.5-.6.7zm-161 0c-.1-.3.1-.5.6-.7.1.2-.1.5-.6.7z"/><path class="st7" d="M428.6 92.7c-.2.1-.6 0-1-.4.3-.1.6 0 1 .4z"/><path class="st6" d="M551.8 150.9c-.1-.3.2-.6.7-.9 0 .3-.2.6-.7.9zm2-1c-.1-.3.2-.6.7-.9 0 .3-.2.6-.7.9zm2-1c-.1-.3.2-.6.7-.9 0 .3-.2.6-.7.9zM455.2 92.1c.1.3-.2.6-.7.8 0-.2.2-.5.7-.8zm263.6 55.8c-.1-.3.2-.5.7-.8 0 .2-.2.5-.7.8z"/><path class="st7" d="M448.6 163.3c.3-.1.5.2.8.7-.2 0-.5-.2-.8-.7zm7.8-17c.2-.1.6 0 1 .4-.3.1-.6 0-1-.4z"/><path class="st6" d="M482.6 92.7c-.2.1-.6 0-1-.4.3-.1.6 0 1 .4z"/><path class="st7" d="M454.4 145.3c.2-.1.6 0 1 .4-.3.1-.6 0-1-.4z"/><path class="st6" d="M516.4 143.3c.2-.1.6.1 1 .6-.2.1-.6-.1-1-.6z"/><path class="st7" d="M555.6 92.7c-.2.1-.6 0-1-.4.3-.1.6 0 1 .4z"/><path class="st6" d="M723.8 143.1c-.1-.2 0-.6.4-1 .1.3 0 .6-.4 1zm-162 0c-.1-.2 0-.6.4-1 .1.3 0 .6-.4 1z"/><path class="st7" d="M198.6 142.3c.3-.1.5.1.8.6-.2.1-.5-.1-.8-.6z"/><path class="st6" d="M514.6 141.3c.3-.1.5.2.8.7-.2 0-.5-.2-.8-.7z"/><path class="st7" d="M450.6 141.3c.3-.1.5.2.8.7-.2 0-.5-.2-.8-.7z"/><path class="st6" d="M724.8 141.1c-.1-.2 0-.6.4-1 .1.3 0 .6-.4 1z"/><path class="st0" d="M24.3 109v22.7H7V95.5h17.3V109zm865 .9c1.8.1 3 .2 4.7.3v36.3h-16.8v-36.6h12.1z"/><path class="st3" d="M86.9 212.1c.5 5.8.5 11.5.5 18H51.9c-.9-5.7-1.3-11.4-1.8-18 12.6-.1 24.5-.1 36.8 0zm75 0c.5 5.8.5 11.5.5 18h-35.5c-.9-5.7-1.3-11.4-1.8-18 12.6-.1 24.5-.1 36.8 0zm75 0c.5 5.8.5 11.5.5 18h-35.5c-.9-5.7-1.3-11.4-1.8-18 12.6-.1 24.5-.1 36.8 0zm375 0c.5 5.8.5 11.5.5 18h-35.5c-.9-5.7-1.3-11.4-1.8-18 12.6-.1 24.5-.1 36.8 0zm-300 0c.5 5.8.5 11.5.5 18h-35.5c-.9-5.7-1.3-11.4-1.8-18 12.6-.1 24.5-.1 36.8 0zm150 0c.5 5.8.5 11.5.5 18h-35.5c-.9-5.7-1.3-11.4-1.8-18 12.6-.1 24.5-.1 36.8 0zm75 0c.5 5.8.5 11.5.5 18h-35.5c-.9-5.7-1.3-11.4-1.8-18 12.6-.1 24.5-.1 36.8 0zm-150 0c.5 5.8.5 11.5.5 18h-35.5c-.9-5.7-1.3-11.4-1.8-18 12.6-.1 24.5-.1 36.8 0zm300 0c.5 5.8.5 11.5.5 18h-35.5c-.9-5.7-1.3-11.4-1.8-18 12.6-.1 24.5-.1 36.8 0zm75 0c.5 5.8.5 11.5.5 18h-35.5c-.9-5.7-1.3-11.4-1.8-18 12.6-.1 24.5-.1 36.8 0zm75 0c.5 5.8.5 11.5.5 18h-35.5c-.9-5.7-1.3-11.4-1.8-18 12.6-.1 24.5-.1 36.8 0z"/><path class="st9" d="M482.6 128c-.3-6-.3-12-.2-18.5.5-.1 1.4.3 1.4.7-.1 5.9-.5 11.9-1.2 17.8z"/><path class="st1" d="M466.3 109.1c.3 6.2.3 12.6.2 19.4-4.1-6-3.5-12.6-.2-19.4z"/><path class="st7" d="M482.7 154.8c-.3-2.8-.3-5.8-.3-9.2.2-1.1.4-1.7.7-2.3l1.4.3c-.4 3.7-.9 7.3-1.8 11.2zm-17.2.3c.4.2.7.7.9 1.6-.3-.3-.6-.8-.9-1.6z"/><path class="st9" d="M479.6 131.2c-.1-.2 0-.6.5-1.3.1.2-.1.6-.5 1.3z"/><path class="st7" d="M478.5 147.1c.1.3-.2.6-.7.8 0-.3.2-.5.7-.8zm3.4 8.7c-.1-.1.1-.4.4-.8 0 .1-.2.4-.4.8zm-1.4-9.7c.1.3-.2.6-.7.9 0-.4.2-.6.7-.9zM152.3 110.2c.3 6.2.3 12.6.2 19.3-.7-.4-1.9-1.4-1.8-2.2.2-5.6.8-11.3 1.6-17.1z"/><path class="st1" d="M169.9 127.8c-.7-5.1-1-10.5-1.3-16.3.9 3.6 1.9 7.7 2.6 11.8.1 1.3-.7 2.8-1.3 4.5z"/><path class="st7" d="M152.5 131.1c.4.2.7.7.9 1.6-.3-.3-.6-.8-.9-1.6z"/><path class="st1" d="M168.4 110c-.3.1-.6-.2-.8-.7.2 0 .5.2.8.7zm-2.8 25.2c-.1-.2.1-.6.5-1.3.1.2-.1.6-.5 1.3zm2.3-3.3c-.2-.2 0-.6.4-1 0 .2-.1.6-.4 1zm.9-2c-.1-.2 0-.6.4-1 .1.2 0 .6-.4 1z"/><path class="st6" d="M403.3 110.2c.3 6.2.3 12.5.2 19.3-3.7-6-2.3-12.5-.2-19.3zm.2 20.9c.3.2.7.7.9 1.5-.3-.2-.6-.7-.9-1.5zM547 130.9c-.1-5.6.2-11.3.6-17.4 3.5 5.5 1.9 11.5-.6 17.4zm-16.9-18.7c.4 5.2.4 10.6.4 16.4-3.6-5-2.4-10.6-.4-16.4zm5.5 23.2c1.7-.4 3.4-.4 5.5-.4-1.2 3.2-3.3 2.4-5.5.4zm12-23.5c-.4-.5-.8-1.3-1.1-2.5.3.5.7 1.3 1.1 2.5zm-16.4-1.8c.1.2 0 .6-.4 1-.1-.2 0-.6.4-1zm-.6 19.9c.3-.1.6.2.9.7-.4 0-.6-.2-.9-.7zm3.7-23.9c.1.2-.1.6-.5 1-.1-.2.1-.6.5-1z"/></svg>